<svg id="visual" viewBox="0 0 900 600" width="900" height="600" xmlns="http://www.w3.org/2000/svg" xmlns:xlink="http://www.w3.org/1999/xlink" version="1.1"><g stroke-width="1" stroke-linejoin="bevel"><path d="M485 268L474 164L408 274Z" fill="#080f10" stroke="#080f10"></path><path d="M474 164L389 180L408 274Z" fill="#101516" stroke="#101516"></path><path d="M474 164L399 133L389 180Z" fill="#131718" stroke="#131718"></path><path d="M566 118L498 94L474 164Z" fill="#1d2122" stroke="#1d2122"></path><path d="M474 164L498 94L399 133Z" fill="#080f10" stroke="#080f10"></path><path d="M628 207L566 118L474 164Z" fill="#181c1d" stroke="#181c1d"></path><path d="M262 209L313 315L389 180Z" fill="#1b1f20" stroke="#1b1f20"></path><path d="M389 180L313 315L408 274Z" fill="#030b0c" stroke="#030b0c"></path><path d="M408 274L416 386L485 268Z" fill="#030b0c" stroke="#030b0c"></path><path d="M313 315L416 386L408 274Z" fill="#131718" stroke="#131718"></path><path d="M323 63L262 209L389 180Z" fill="#1b1f20" stroke="#1b1f20"></path><path d="M631 290L628 207L485 268Z" fill="#030b0c" stroke="#030b0c"></path><path d="M485 268L628 207L474 164Z" fill="#101516" stroke="#101516"></path><path d="M380 0L323 63L399 133Z" fill="#1b1f20" stroke="#1b1f20"></path><path d="M399 133L323 63L389 180Z" fill="#1b1f20" stroke="#1b1f20"></path><path d="M601 427L631 290L485 268Z" fill="#1d2122" stroke="#1d2122"></path><path d="M416 386L484 422L485 268Z" fill="#1b1f20" stroke="#1b1f20"></path><path d="M607 0L466 0L498 94Z" fill="#1d2122" stroke="#1d2122"></path><path d="M498 94L466 0L399 133Z" fill="#181c1d" stroke="#181c1d"></path><path d="M466 0L380 0L399 133Z" fill="#1d2122" stroke="#1d2122"></path><path d="M323 63L215 166L262 209Z" fill="#000000" stroke="#000000"></path><path d="M262 209L206 301L313 315Z" fill="#000000" stroke="#000000"></path><path d="M160 70L215 166L323 63Z" fill="#101516" stroke="#101516"></path><path d="M313 315L315 419L416 386Z" fill="#131718" stroke="#131718"></path><path d="M416 386L431 484L484 422Z" fill="#030b0c" stroke="#030b0c"></path><path d="M187 374L315 419L313 315Z" fill="#181c1d" stroke="#181c1d"></path><path d="M215 166L206 301L262 209Z" fill="#181c1d" stroke="#181c1d"></path><path d="M703 296L694 182L628 207Z" fill="#030b0c" stroke="#030b0c"></path><path d="M628 207L694 182L566 118Z" fill="#1d2122" stroke="#1d2122"></path><path d="M566 118L607 0L498 94Z" fill="#181c1d" stroke="#181c1d"></path><path d="M431 484L522 462L484 422Z" fill="#000608" stroke="#000608"></path><path d="M484 422L601 427L485 268Z" fill="#131718" stroke="#131718"></path><path d="M522 462L601 427L484 422Z" fill="#131718" stroke="#131718"></path><path d="M631 290L703 296L628 207Z" fill="#030b0c" stroke="#030b0c"></path><path d="M315 419L431 484L416 386Z" fill="#101516" stroke="#101516"></path><path d="M705 429L703 296L631 290Z" fill="#1b1f20" stroke="#1b1f20"></path><path d="M675 0L607 0L566 118Z" fill="#131718" stroke="#131718"></path><path d="M380 0L275 0L323 63Z" fill="#1d2122" stroke="#1d2122"></path><path d="M694 182L712 133L566 118Z" fill="#161a1b" stroke="#161a1b"></path><path d="M818 229L712 133L694 182Z" fill="#0c1213" stroke="#0c1213"></path><path d="M187 374L309 473L315 419Z" fill="#0c1213" stroke="#0c1213"></path><path d="M315 419L309 473L431 484Z" fill="#1d2122" stroke="#1d2122"></path><path d="M104 266L187 374L206 301Z" fill="#030b0c" stroke="#030b0c"></path><path d="M206 301L187 374L313 315Z" fill="#181c1d" stroke="#181c1d"></path><path d="M275 0L224 0L323 63Z" fill="#101516" stroke="#101516"></path><path d="M215 166L104 266L206 301Z" fill="#1b1f20" stroke="#1b1f20"></path><path d="M224 0L160 70L323 63Z" fill="#000608" stroke="#000608"></path><path d="M712 133L675 0L566 118Z" fill="#181c1d" stroke="#181c1d"></path><path d="M160 70L128 136L215 166Z" fill="#0c1213" stroke="#0c1213"></path><path d="M772 422L763 279L703 296Z" fill="#000000" stroke="#000000"></path><path d="M703 296L763 279L694 182Z" fill="#000608" stroke="#000608"></path><path d="M712 133L818 77L675 0Z" fill="#101516" stroke="#101516"></path><path d="M685 473L705 429L601 427Z" fill="#1d2122" stroke="#1d2122"></path><path d="M601 427L705 429L631 290Z" fill="#0c1213" stroke="#0c1213"></path><path d="M685 473L601 427L618 539Z" fill="#080f10" stroke="#080f10"></path><path d="M128 136L104 266L215 166Z" fill="#131718" stroke="#131718"></path><path d="M618 539L601 427L522 462Z" fill="#0c1213" stroke="#0c1213"></path><path d="M0 61L86 165L128 136Z" fill="#181c1d" stroke="#181c1d"></path><path d="M128 136L86 165L104 266Z" fill="#161a1b" stroke="#161a1b"></path><path d="M462 600L618 539L522 462Z" fill="#000000" stroke="#000000"></path><path d="M462 600L522 462L431 484Z" fill="#181c1d" stroke="#181c1d"></path><path d="M900 231L818 229L900 312Z" fill="#0c1213" stroke="#0c1213"></path><path d="M763 279L818 229L694 182Z" fill="#181c1d" stroke="#181c1d"></path><path d="M772 422L703 296L705 429Z" fill="#0c1213" stroke="#0c1213"></path><path d="M396 600L431 484L309 473Z" fill="#1b1f20" stroke="#1b1f20"></path><path d="M396 600L462 600L431 484Z" fill="#1b1f20" stroke="#1b1f20"></path><path d="M308 600L396 600L309 473Z" fill="#161a1b" stroke="#161a1b"></path><path d="M81 474L212 526L187 374Z" fill="#161a1b" stroke="#161a1b"></path><path d="M187 374L212 526L309 473Z" fill="#030b0c" stroke="#030b0c"></path><path d="M826 516L772 422L685 473Z" fill="#000608" stroke="#000608"></path><path d="M685 473L772 422L705 429Z" fill="#181c1d" stroke="#181c1d"></path><path d="M224 0L118 0L160 70Z" fill="#161a1b" stroke="#161a1b"></path><path d="M160 70L0 61L128 136Z" fill="#101516" stroke="#101516"></path><path d="M818 229L818 77L712 133Z" fill="#000000" stroke="#000000"></path><path d="M212 526L308 600L309 473Z" fill="#131718" stroke="#131718"></path><path d="M0 288L66 391L104 266Z" fill="#080f10" stroke="#080f10"></path><path d="M104 266L66 391L187 374Z" fill="#080f10" stroke="#080f10"></path><path d="M462 600L635 600L618 539Z" fill="#161a1b" stroke="#161a1b"></path><path d="M618 539L676 600L685 473Z" fill="#1b1f20" stroke="#1b1f20"></path><path d="M69 600L223 600L212 526Z" fill="#101516" stroke="#101516"></path><path d="M212 526L223 600L308 600Z" fill="#080f10" stroke="#080f10"></path><path d="M900 0L824 0L818 77Z" fill="#1b1f20" stroke="#1b1f20"></path><path d="M818 77L824 0L675 0Z" fill="#000608" stroke="#000608"></path><path d="M66 391L81 474L187 374Z" fill="#000608" stroke="#000608"></path><path d="M0 61L0 216L86 165Z" fill="#1b1f20" stroke="#1b1f20"></path><path d="M86 165L0 216L104 266Z" fill="#0c1213" stroke="#0c1213"></path><path d="M66 391L0 405L81 474Z" fill="#0c1213" stroke="#0c1213"></path><path d="M635 600L676 600L618 539Z" fill="#030b0c" stroke="#030b0c"></path><path d="M0 216L0 288L104 266Z" fill="#0c1213" stroke="#0c1213"></path><path d="M900 312L818 229L763 279Z" fill="#080f10" stroke="#080f10"></path><path d="M818 229L900 86L818 77Z" fill="#080f10" stroke="#080f10"></path><path d="M900 312L763 279L772 422Z" fill="#080f10" stroke="#080f10"></path><path d="M900 404L900 312L772 422Z" fill="#161a1b" stroke="#161a1b"></path><path d="M118 0L0 61L160 70Z" fill="#030b0c" stroke="#030b0c"></path><path d="M900 231L900 86L818 229Z" fill="#000000" stroke="#000000"></path><path d="M0 288L0 405L66 391Z" fill="#101516" stroke="#101516"></path><path d="M81 474L69 600L212 526Z" fill="#181c1d" stroke="#181c1d"></path><path d="M789 600L826 516L685 473Z" fill="#161a1b" stroke="#161a1b"></path><path d="M826 516L900 404L772 422Z" fill="#080f10" stroke="#080f10"></path><path d="M118 0L0 0L0 61Z" fill="#030b0c" stroke="#030b0c"></path><path d="M900 86L900 0L818 77Z" fill="#030b0c" stroke="#030b0c"></path><path d="M676 600L789 600L685 473Z" fill="#0c1213" stroke="#0c1213"></path><path d="M826 516L900 532L900 404Z" fill="#1b1f20" stroke="#1b1f20"></path><path d="M0 526L69 600L81 474Z" fill="#181c1d" stroke="#181c1d"></path><path d="M0 405L0 526L81 474Z" fill="#0c1213" stroke="#0c1213"></path><path d="M900 600L900 532L826 516Z" fill="#1b1f20" stroke="#1b1f20"></path><path d="M0 526L0 600L69 600Z" fill="#1b1f20" stroke="#1b1f20"></path><path d="M789 600L900 600L826 516Z" fill="#131718" stroke="#131718"></path></g></svg>